<svg width="91" height="26" viewBox="0 0 91 26" fill="none" xmlns="http://www.w3.org/2000/svg">
<path d="M0.416 2.08994L3.56 2.13794H6.32C8.368 2.13794 9.904 2.53794 10.928 3.33794C11.952 4.12194 12.464 5.08994 12.464 6.24194C12.464 7.08994 12.136 7.84994 11.48 8.52194C10.824 9.17794 10 9.60194 9.008 9.79394V9.88994C10.448 10.1459 11.584 10.6579 12.416 11.4259C13.248 12.1939 13.664 13.0659 13.664 14.0419C13.664 15.2099 13.048 16.2019 11.816 17.0179C10.584 17.8339 8.92 18.2419 6.824 18.2419H4.496L0.416 18.2899C0.288 18.2899 0.224 18.1539 0.224 17.8819C0.224 17.6099 0.288 17.4739 0.416 17.4739H1.448C1.848 17.4739 2.112 17.4019 2.24 17.2579C2.368 17.0979 2.432 16.8019 2.432 16.3699V5.01794C2.432 3.60994 2.264 2.90594 1.928 2.90594H0.416C0.288 2.90594 0.224 2.76994 0.224 2.49794C0.224 2.22594 0.288 2.08994 0.416 2.08994ZM4.904 15.1699C4.904 16.5779 5.08 17.2819 5.432 17.2819H6.656C7.984 17.2819 9 16.9859 9.704 16.3939C10.408 15.8019 10.76 15.0179 10.76 14.0419C10.76 12.9859 10.392 12.1459 9.656 11.5219C8.824 10.8019 7.24 10.3939 4.904 10.2979V15.1699ZM4.904 4.20194V9.33794C5.288 9.40194 5.712 9.43394 6.176 9.43394C7.344 9.43394 8.248 9.14594 8.888 8.56994C9.544 7.97794 9.872 7.24194 9.872 6.36194C9.872 5.48194 9.52 4.72194 8.816 4.08194C8.112 3.42594 7.04 3.09794 5.6 3.09794C5.136 3.09794 4.904 3.46594 4.904 4.20194ZM19.5935 7.05794L19.5455 9.21794H19.5935C19.9615 8.81794 20.4655 8.42594 21.1055 8.04194C21.7455 7.64194 22.3135 7.44194 22.8095 7.44194C23.3055 7.44194 23.6575 7.53794 23.8655 7.72994C24.0735 7.92194 24.1775 8.16194 24.1775 8.44994C24.1775 8.72194 24.0815 8.99394 23.8895 9.26594C23.6975 9.53794 23.4335 9.74594 23.0975 9.88994C22.4895 9.36194 21.8735 9.09794 21.2495 9.09794C20.6415 9.09794 20.0975 9.40994 19.6175 10.0339V15.4099C19.6175 16.8179 19.7855 17.5219 20.1215 17.5219H21.2975C21.4255 17.5219 21.4895 17.6419 21.4895 17.8819C21.4895 18.1219 21.4415 18.2419 21.3455 18.2419L18.7295 18.2179L15.9455 18.2899C15.8335 18.2899 15.7775 18.1699 15.7775 17.9299C15.7775 17.6899 15.8175 17.5699 15.8975 17.5699H17.2895C17.4815 17.5699 17.5775 17.4339 17.5775 17.1619V11.5219C17.5775 9.96994 17.3535 9.19394 16.9055 9.19394H16.4255C16.2975 9.19394 16.2335 9.07394 16.2335 8.83394C16.2335 8.59394 16.2815 8.47394 16.3775 8.47394C16.8095 8.47394 17.2415 8.33794 17.6735 8.06594C18.1055 7.77794 18.4575 7.48994 18.7295 7.20194C19.0175 6.91394 19.1935 6.76994 19.2575 6.76994C19.4815 6.76994 19.5935 6.86594 19.5935 7.05794ZM33.3125 10.4659C33.3125 10.4659 33.2325 12.0739 33.0725 15.2899C33.0725 16.3619 33.4245 16.8979 34.1285 16.8979C34.4165 16.8979 34.6565 16.8179 34.8485 16.6579C35.0565 16.4819 35.1765 16.3939 35.2085 16.3939C35.3685 16.3939 35.4485 16.4739 35.4485 16.6339C35.4485 17.0499 35.2085 17.4659 34.7285 17.8819C34.2645 18.2979 33.7445 18.5059 33.1685 18.5059C32.5925 18.5059 32.1525 18.2739 31.8485 17.8099C31.5605 17.3299 31.4165 16.7459 31.4165 16.0579C31.4165 15.9939 31.4165 15.9219 31.4165 15.8419H31.3445C31.0565 16.6259 30.5685 17.2739 29.8805 17.7859C29.1925 18.2979 28.4645 18.5539 27.6965 18.5539C26.9445 18.5539 26.3685 18.4019 25.9685 18.0979C25.5845 17.7779 25.3925 17.3299 25.3925 16.7539C25.3925 15.8419 25.9125 14.9859 26.9525 14.1859C27.9925 13.3859 29.4405 12.7139 31.2965 12.1699C31.3285 11.6259 31.3445 11.3059 31.3445 11.2099C31.3445 10.3459 31.1765 9.63394 30.8405 9.07394C30.5205 8.51394 30.0325 8.23394 29.3765 8.23394C28.7205 8.23394 28.1845 8.42594 27.7685 8.80994C27.3685 9.17794 27.1685 9.71394 27.1685 10.4179C27.1685 10.6419 27.1765 10.8179 27.1925 10.9459C27.0805 11.1059 26.8645 11.1859 26.5445 11.1859C26.2245 11.1859 25.9445 11.0899 25.7045 10.8979C25.4645 10.7059 25.3445 10.4259 25.3445 10.0579C25.3445 9.33794 25.8005 8.72194 26.7125 8.20994C27.6245 7.69794 28.5845 7.44194 29.5925 7.44194C32.0725 7.44194 33.3125 8.44994 33.3125 10.4659ZM28.6805 17.2339C29.3365 17.2339 29.9205 16.8419 30.4325 16.0579C30.9445 15.2739 31.2325 14.2099 31.2965 12.8659C29.9365 13.3619 28.9845 13.8739 28.4405 14.4019C27.8965 14.9299 27.6245 15.4979 27.6245 16.1059C27.6245 16.8579 27.9765 17.2339 28.6805 17.2339ZM40.2414 7.05794L40.1934 8.92994H40.2414C40.7214 8.48194 41.2814 8.12194 41.9214 7.84994C42.5614 7.57794 43.1454 7.44194 43.6734 7.44194C46.3294 7.44194 47.6574 8.97794 47.6574 12.0499V15.4099C47.6574 16.8179 47.8254 17.5219 48.1614 17.5219H49.3374C49.4654 17.5219 49.5294 17.6419 49.5294 17.8819C49.5294 18.1219 49.4814 18.2419 49.3854 18.2419C49.3854 18.2419 48.5134 18.2339 46.7694 18.2179L43.9854 18.2899C43.8734 18.2899 43.8174 18.1699 43.8174 17.9299C43.8174 17.6899 43.8574 17.5699 43.9374 17.5699H45.3294C45.5214 17.5699 45.6174 17.4339 45.6174 17.1619V13.1059C45.6174 11.4739 45.3934 10.3459 44.9454 9.72194C44.5134 9.08194 43.7694 8.76194 42.7134 8.76194C41.6574 8.76194 40.8414 9.08194 40.2654 9.72194V15.4099C40.2654 16.8179 40.4334 17.5219 40.7694 17.5219H41.9454C42.0734 17.5219 42.1374 17.6419 42.1374 17.8819C42.1374 18.1219 42.0894 18.2419 41.9934 18.2419L39.3774 18.2179L36.5934 18.2899C36.4814 18.2899 36.4254 18.1699 36.4254 17.9299C36.4254 17.6899 36.4654 17.5699 36.5454 17.5699H37.9374C38.1294 17.5699 38.2254 17.4339 38.2254 17.1619V11.5219C38.2254 9.96994 38.0014 9.19394 37.5534 9.19394H37.0734C36.9454 9.19394 36.8814 9.07394 36.8814 8.83394C36.8814 8.59394 36.9294 8.47394 37.0254 8.47394C37.4574 8.47394 37.8894 8.33794 38.3214 8.06594C38.7534 7.77794 39.1054 7.48994 39.3774 7.20194C39.6654 6.91394 39.8414 6.76994 39.9054 6.76994C40.1294 6.76994 40.2414 6.86594 40.2414 7.05794ZM61.2884 0.601943L61.2644 9.21794V14.7379C61.2644 15.8259 61.3764 16.4659 61.6004 16.6579C61.7284 16.7539 61.8964 16.8019 62.1044 16.8019L62.9204 16.7299C63.0484 16.7299 63.1124 16.8499 63.1124 17.0899C63.1124 17.3139 63.0644 17.4339 62.9684 17.4499C61.8964 17.6259 61.0084 17.9219 60.3044 18.3379C60.0804 18.4819 59.9364 18.5539 59.8724 18.5539C59.5364 18.5539 59.3364 17.9539 59.2724 16.7539H59.2244C58.2644 17.9539 56.9364 18.5539 55.2404 18.5539C53.8004 18.5539 52.6644 18.0819 51.8324 17.1379C51.0004 16.1779 50.5844 14.9059 50.5844 13.3219C50.5844 11.7219 51.1284 10.3459 52.2164 9.19394C53.3204 8.02594 54.6324 7.44194 56.1524 7.44194C57.2884 7.44194 58.3124 7.79394 59.2244 8.49794V4.22594C59.2244 2.67394 59.0244 1.89794 58.6244 1.89794H57.5444C57.4164 1.89794 57.3524 1.77794 57.3524 1.53794C57.3524 1.29794 57.4004 1.17794 57.4964 1.17794C58.1524 1.17794 58.6804 1.12194 59.0804 1.00994C59.4804 0.881943 59.7604 0.793943 59.9204 0.745943C60.0804 0.681942 60.2724 0.601943 60.4964 0.505943C60.7364 0.393942 60.8804 0.329942 60.9284 0.313942C61.1684 0.313942 61.2884 0.409943 61.2884 0.601943ZM56.2244 8.30594C55.1364 8.30594 54.3204 8.77794 53.7764 9.72194C53.2484 10.6499 52.9844 11.7059 52.9844 12.8899C52.9844 14.0739 53.3124 15.0739 53.9684 15.8899C54.6244 16.6899 55.5124 17.0899 56.6324 17.0899C57.4004 17.0899 58.0164 16.9139 58.4804 16.5619C58.7204 16.4019 58.8964 16.2739 59.0084 16.1779C59.1204 16.0659 59.1924 16.0019 59.2244 15.9859V11.6899C59.0324 9.43394 58.0324 8.30594 56.2244 8.30594ZM67.1023 18.2179L64.3183 18.2899C64.2063 18.2899 64.1503 18.1699 64.1503 17.9299C64.1503 17.6899 64.1903 17.5699 64.2703 17.5699H65.6623C65.8543 17.5699 65.9503 17.4339 65.9503 17.1619V11.5219C65.9503 9.96994 65.7263 9.19394 65.2783 9.19394H64.7983C64.6703 9.19394 64.6063 9.07394 64.6063 8.83394C64.6063 8.59394 64.6543 8.47394 64.7503 8.47394C65.4863 8.47394 66.2863 8.04994 67.1503 7.20194C67.4543 6.91394 67.6463 6.76994 67.7263 6.76994C67.9663 6.76994 68.0863 6.86594 68.0863 7.05794C68.0863 7.18594 68.0703 7.61794 68.0383 8.35394C68.0063 9.07394 67.9903 9.99394 67.9903 11.1139V15.4099C67.9903 16.8179 68.1583 17.5219 68.4943 17.5219H69.6703C69.7983 17.5219 69.8623 17.6419 69.8623 17.8819C69.8623 18.1219 69.8143 18.2419 69.7183 18.2419L67.1023 18.2179ZM67.9663 2.92994C67.9663 3.28194 67.8463 3.58594 67.6063 3.84194C67.3663 4.08194 67.0703 4.20194 66.7183 4.20194C66.3663 4.20194 66.0543 4.08194 65.7823 3.84194C65.5263 3.60194 65.3983 3.30594 65.3983 2.95394C65.3983 2.58594 65.5183 2.27394 65.7583 2.01794C66.0143 1.76194 66.3183 1.63394 66.6703 1.63394C67.0383 1.63394 67.3423 1.76194 67.5823 2.01794C67.8383 2.25794 67.9663 2.56194 67.9663 2.92994ZM74.2987 18.2179L71.5147 18.2899C71.4027 18.2899 71.3467 18.1699 71.3467 17.9299C71.3467 17.6899 71.3867 17.5699 71.4667 17.5699H72.8587C73.0507 17.5699 73.1467 17.4339 73.1467 17.1619V8.66594H71.4667C71.2907 8.66594 71.2027 8.53794 71.2027 8.28194C71.2027 8.00994 71.2747 7.87394 71.4187 7.87394C72.4267 7.87394 72.9867 7.70594 73.0987 7.36994C73.1627 7.16194 73.2427 6.85794 73.3387 6.45794C73.4507 6.04194 73.5467 5.68994 73.6267 5.40194C73.7067 5.09794 73.8187 4.74594 73.9627 4.34594C74.1067 3.92994 74.2587 3.56994 74.4187 3.26594C74.5947 2.96194 74.8187 2.64994 75.0907 2.32994C75.3627 2.00994 75.6587 1.74594 75.9787 1.53794C76.7307 1.08994 77.6587 0.865942 78.7627 0.865942C79.4027 0.865942 79.9467 1.02594 80.3947 1.34594C80.8587 1.64994 81.0907 2.00194 81.0907 2.40194C81.0907 2.96194 80.6907 3.36994 79.8907 3.62594C79.6667 3.27394 79.4747 2.99394 79.3147 2.78594C79.1547 2.57794 78.9227 2.37794 78.6187 2.18594C78.3147 1.97794 77.9787 1.87394 77.6107 1.87394C77.2587 1.87394 76.9307 1.95394 76.6267 2.11394C76.3387 2.27394 76.1067 2.51394 75.9307 2.83394C75.7547 3.13794 75.6107 3.44194 75.4987 3.74594C75.4027 4.04994 75.3307 4.43394 75.2827 4.89794C75.2187 5.52194 75.1867 6.24194 75.1867 7.05794V7.75394H77.8987C78.0747 7.75394 78.1627 7.90594 78.1627 8.20994C78.1627 8.51394 78.0907 8.66594 77.9467 8.66594H75.1867V15.4099C75.1867 16.8179 75.3547 17.5219 75.6907 17.5219H76.8667C76.9947 17.5219 77.0587 17.6419 77.0587 17.8819C77.0587 18.1219 77.0107 18.2419 76.9147 18.2419L74.2987 18.2179ZM88.2841 7.77794L90.0361 7.72994C90.1481 7.72994 90.2041 7.83394 90.2041 8.04194C90.2041 8.24994 90.1481 8.35394 90.0361 8.35394H89.4361C89.2441 8.35394 89.0921 8.46594 88.9801 8.68994C88.2441 10.0979 87.3881 12.1699 86.4121 14.9059C85.4361 17.6419 84.8521 19.2579 84.6601 19.7539C83.1241 23.7219 81.3321 25.7059 79.2841 25.7059C78.5481 25.7059 78.0521 25.5059 77.7961 25.1059C77.7321 24.9779 77.7001 24.7939 77.7001 24.5539C77.7001 24.3139 77.8841 23.9779 78.2521 23.5459C78.7161 23.8659 79.2361 24.0259 79.8121 24.0259C80.4041 24.0259 81.0281 23.6499 81.6841 22.8979C82.3561 22.1619 82.8841 21.3699 83.2681 20.5219C83.6521 19.6899 83.8441 19.0659 83.8441 18.6499C83.8441 18.2339 83.7641 17.7379 83.6041 17.1619C83.4441 16.5699 83.2041 15.8819 82.8841 15.0979C82.5641 14.3139 82.2841 13.6499 82.0441 13.1059C81.8041 12.5459 81.4681 11.8179 81.0361 10.9219C80.6201 10.0259 80.3401 9.43394 80.1961 9.14594C80.0681 8.84194 79.9241 8.64194 79.7641 8.54594C79.6041 8.43394 79.3401 8.37794 78.9721 8.37794C78.8761 8.37794 78.8281 8.27394 78.8281 8.06594C78.8281 7.84194 78.8761 7.72994 78.9721 7.72994L81.2521 7.77794L83.8441 7.72994C83.9401 7.72994 83.9881 7.83394 83.9881 8.04194C83.9881 8.24994 83.9401 8.35394 83.8441 8.35394H82.7641C82.5561 8.35394 82.4521 8.41794 82.4521 8.54594C82.4521 8.65794 82.5721 9.04194 82.8121 9.69794C83.0681 10.3379 83.4281 11.2739 83.8921 12.5059C84.3721 13.7379 84.7961 14.8979 85.1641 15.9859C85.4361 15.0579 85.7721 14.0259 86.1721 12.8899C86.5881 11.7379 86.9001 10.8419 87.1081 10.2019C87.3161 9.56194 87.4201 9.09794 87.4201 8.80994C87.4201 8.52194 87.3161 8.37794 87.1081 8.37794H85.9801C85.9001 8.37794 85.8601 8.27394 85.8601 8.06594C85.8601 7.84194 85.9001 7.72994 85.9801 7.72994L88.2841 7.77794Z" fill="black"/>
</svg>
