<svg width="9" height="17" viewBox="0 0 9 17" fill="none" xmlns="http://www.w3.org/2000/svg">
<path opacity="0.4" d="M0.642848 2.0296C0.578238 1.96499 0.526986 1.88828 0.492019 1.80386C0.457052 1.71945 0.439054 1.62897 0.439054 1.53759C0.439054 1.44622 0.457052 1.35574 0.492019 1.27132C0.526986 1.18691 0.578238 1.1102 0.642848 1.04559C0.707459 0.980981 0.784163 0.929729 0.868581 0.894762C0.952999 0.859795 1.04348 0.841797 1.13485 0.841797C1.22622 0.841797 1.3167 0.859795 1.40112 0.894762C1.48554 0.929729 1.56224 0.980981 1.62685 1.04559L8.58096 7.9997C8.64562 8.06428 8.69691 8.14098 8.7319 8.2254C8.7669 8.30982 8.78491 8.40031 8.78491 8.4917C8.78491 8.58309 8.7669 8.67358 8.7319 8.758C8.69691 8.84242 8.64562 8.91912 8.58096 8.9837L1.62685 15.9378C1.49637 16.0683 1.31939 16.1416 1.13485 16.1416C0.950313 16.1416 0.773334 16.0683 0.642847 15.9378C0.51236 15.8073 0.439053 15.6303 0.439053 15.4458C0.439053 15.2613 0.51236 15.0843 0.642847 14.9538L7.10582 8.4917L0.642848 2.0296Z" fill="black"/>
</svg>
